<svg width="180" height="110" viewBox="0 0 180 110" fill="none" xmlns="http://www.w3.org/2000/svg">
<mask id="path-1-inside-1_65_12100" fill="white">
<path d="M26 53.042H180V54.2736H26V53.042Z"/>
</mask>
<path d="M180 54.2736V53.042H26V54.2736V55.5052H180V54.2736Z" fill="#DCE4E8" mask="url(#path-1-inside-1_65_12100)"/>
<mask id="path-3-inside-2_65_12100" fill="white">
<path d="M26 11.1685H180V12.4H26V11.1685Z"/>
</mask>
<path d="M180 12.4V11.1685H26V12.4V13.6316H180V12.4Z" fill="#DCE4E8" mask="url(#path-3-inside-2_65_12100)"/>
<mask id="path-5-inside-3_65_12100" fill="white">
<path d="M46 83L46 7H47L47 83H46Z"/>
</mask>
<path d="M47 83H47.6158V79.2H47H46.3842V83H47ZM47 71.6H47.6158V64H47H46.3842V71.6H47ZM47 56.4H47.6158V48.8H47H46.3842V56.4H47ZM47 41.2H47.6158V33.6H47H46.3842V41.2H47ZM47 26H47.6158L47.6158 18.4H47H46.3842L46.3842 26H47ZM47 10.8H47.6158V7H47H46.3842V10.8H47ZM47 83H48.2316V79.2H47H45.7684V83H47ZM47 71.6H48.2316V64H47H45.7684V71.6H47ZM47 56.4H48.2316V48.8H47H45.7684V56.4H47ZM47 41.2H48.2316V33.6H47H45.7684V41.2H47ZM47 26H48.2316L48.2316 18.4H47H45.7684L45.7684 26H47ZM47 10.8H48.2316V7H47H45.7684V10.8H47Z" fill="#DCE4E8" mask="url(#path-5-inside-3_65_12100)"/>
<mask id="path-7-inside-4_65_12100" fill="white">
<path d="M103 84V7H104V84H103Z"/>
</mask>
<path d="M104 84H104.616V80.15H104H103.384V84H104ZM104 72.45H104.616V64.75H104H103.384V72.45H104ZM104 57.05H104.616V49.35H104H103.384V57.05H104ZM104 41.65H104.616V33.95H104H103.384V41.65H104ZM104 26.25H104.616V18.55H104H103.384V26.25H104ZM104 10.85H104.616V7H104H103.384V10.85H104ZM104 84H105.232V80.15H104H102.768V84H104ZM104 72.45H105.232V64.75H104H102.768V72.45H104ZM104 57.05H105.232V49.35H104H102.768V57.05H104ZM104 41.65H105.232V33.95H104H102.768V41.65H104ZM104 26.25H105.232V18.55H104H102.768V26.25H104ZM104 10.85H105.232V7H104H102.768V10.85H104Z" fill="#DCE4E8" mask="url(#path-7-inside-4_65_12100)"/>
<mask id="path-9-inside-5_65_12100" fill="white">
<path d="M160 83V6H161V83H160Z"/>
</mask>
<path d="M161 83H161.616V79.15H161H160.384V83H161ZM161 71.45H161.616V63.75H161H160.384V71.45H161ZM161 56.05H161.616V48.35H161H160.384V56.05H161ZM161 40.65H161.616V32.95H161H160.384V40.65H161ZM161 25.25H161.616V17.55H161H160.384V25.25H161ZM161 9.85H161.616V6H161H160.384V9.85H161ZM161 83H162.232V79.15H161H159.768V83H161ZM161 71.45H162.232V63.75H161H159.768V71.45H161ZM161 56.05H162.232V48.35H161H159.768V56.05H161ZM161 40.65H162.232V32.95H161H159.768V40.65H161ZM161 25.25H162.232V17.55H161H159.768V25.25H161ZM161 9.85H162.232V6H161H159.768V9.85H161Z" fill="#DCE4E8" mask="url(#path-9-inside-5_65_12100)"/>
<rect x="38" y="32" width="20" height="51" fill="#E7854D"/>
<rect x="94" y="40" width="20" height="43" fill="#E7854D"/>
<rect x="148" y="20" width="20" height="63" fill="#E7854D"/>
<path d="M2.346 13V5.344L0.72 6.322V5.332L2.346 4.36H3.24V13H2.346ZM8.21578 13.18C7.68378 13.18 7.20378 13.056 6.77578 12.808C6.35178 12.56 6.01578 12.224 5.76778 11.8C5.51978 11.372 5.39578 10.892 5.39578 10.36V7C5.39578 6.468 5.51978 5.99 5.76778 5.566C6.01578 5.138 6.35178 4.8 6.77578 4.552C7.20378 4.304 7.68378 4.18 8.21578 4.18C8.74778 4.18 9.22578 4.304 9.64978 4.552C10.0778 4.8 10.4158 5.138 10.6638 5.566C10.9118 5.99 11.0358 6.468 11.0358 7V10.36C11.0358 10.892 10.9118 11.372 10.6638 11.8C10.4158 12.224 10.0778 12.56 9.64978 12.808C9.22578 13.056 8.74778 13.18 8.21578 13.18ZM8.21578 12.328C8.57178 12.328 8.89578 12.242 9.18778 12.07C9.47978 11.894 9.71178 11.66 9.88378 11.368C10.0558 11.076 10.1418 10.754 10.1418 10.402V6.958C10.1418 6.602 10.0558 6.278 9.88378 5.986C9.71178 5.694 9.47978 5.462 9.18778 5.29C8.89578 5.114 8.57178 5.026 8.21578 5.026C7.85978 5.026 7.53578 5.114 7.24378 5.29C6.95178 5.462 6.71978 5.694 6.54778 5.986C6.37578 6.278 6.28978 6.602 6.28978 6.958V10.402C6.28978 10.754 6.37578 11.076 6.54778 11.368C6.71978 11.66 6.95178 11.894 7.24378 12.07C7.53578 12.242 7.85978 12.328 8.21578 12.328ZM12.594 13L12.6 4.36H13.488V9.64L16.38 6.52H17.556L14.52 9.76L17.952 13H16.668L13.488 9.88V13H12.594Z" fill="#ACB5BB"/>
<path d="M3.39 45.18C2.942 45.18 2.528 45.088 2.148 44.904C1.768 44.72 1.444 44.466 1.176 44.142C0.908 43.818 0.716 43.446 0.6 43.026L1.446 42.798C1.522 43.11 1.66 43.38 1.86 43.608C2.06 43.832 2.294 44.006 2.562 44.13C2.834 44.254 3.118 44.316 3.414 44.316C3.798 44.316 4.142 44.224 4.446 44.04C4.754 43.852 4.998 43.604 5.178 43.296C5.358 42.988 5.448 42.65 5.448 42.282C5.448 41.902 5.354 41.56 5.166 41.256C4.978 40.948 4.73 40.704 4.422 40.524C4.114 40.344 3.778 40.254 3.414 40.254C3.006 40.254 2.654 40.344 2.358 40.524C2.062 40.7 1.826 40.922 1.65 41.19L0.846 40.854L1.11 36.36H5.724V37.206H1.5L1.938 36.792L1.704 40.626L1.482 40.332C1.73 40.048 2.03 39.826 2.382 39.666C2.734 39.506 3.104 39.426 3.492 39.426C4.024 39.426 4.504 39.554 4.932 39.81C5.36 40.062 5.7 40.404 5.952 40.836C6.204 41.268 6.33 41.75 6.33 42.282C6.33 42.81 6.196 43.294 5.928 43.734C5.66 44.17 5.304 44.52 4.86 44.784C4.416 45.048 3.926 45.18 3.39 45.18ZM7.63978 45L7.64578 36.36H8.53378V41.64L11.4258 38.52H12.6018L9.56578 41.76L12.9978 45H11.7138L8.53378 41.88V45H7.63978Z" fill="#ACB5BB"/>
<path d="M2.346 77V69.344L0.72 70.322V69.332L2.346 68.36H3.24V77H2.346ZM5.38978 77L5.39578 68.36H6.28378V73.64L9.17578 70.52H10.3518L7.31578 73.76L10.7478 77H9.46378L6.28378 73.88V77H5.38978Z" fill="#ACB5BB"/>
<path d="M40.316 107.174C39.74 107.174 39.246 107.014 38.834 106.694C38.422 106.374 38.144 105.946 38 105.41L38.882 105.2C38.954 105.516 39.12 105.784 39.38 106.004C39.644 106.22 39.954 106.328 40.31 106.328C40.534 106.328 40.76 106.274 40.988 106.166C41.22 106.058 41.402 105.88 41.534 105.632C41.622 105.46 41.672 105.274 41.684 105.074C41.7 104.87 41.708 104.626 41.708 104.342V98.36H42.596V104.342C42.596 104.582 42.594 104.8 42.59 104.996C42.586 105.188 42.564 105.374 42.524 105.554C42.488 105.73 42.418 105.908 42.314 106.088C42.106 106.452 41.826 106.724 41.474 106.904C41.126 107.084 40.74 107.174 40.316 107.174ZM46.1404 107.18C45.6524 107.18 45.2424 107.092 44.9104 106.916C44.5824 106.74 44.3364 106.506 44.1724 106.214C44.0084 105.922 43.9264 105.604 43.9264 105.26C43.9264 104.908 43.9964 104.608 44.1364 104.36C44.2804 104.108 44.4744 103.902 44.7184 103.742C44.9664 103.582 45.2524 103.46 45.5764 103.376C45.9044 103.296 46.2664 103.226 46.6624 103.166C47.0624 103.102 47.4524 103.048 47.8324 103.004C48.2164 102.956 48.5524 102.91 48.8404 102.866L48.5284 103.058C48.5404 102.418 48.4164 101.944 48.1564 101.636C47.8964 101.328 47.4444 101.174 46.8004 101.174C46.3564 101.174 45.9804 101.274 45.6724 101.474C45.3684 101.674 45.1544 101.99 45.0304 102.422L44.1724 102.17C44.3204 101.59 44.6184 101.14 45.0664 100.82C45.5144 100.5 46.0964 100.34 46.8124 100.34C47.4044 100.34 47.9064 100.452 48.3184 100.676C48.7344 100.896 49.0284 101.216 49.2004 101.636C49.2804 101.824 49.3324 102.034 49.3564 102.266C49.3804 102.498 49.3924 102.734 49.3924 102.974V107H48.6064V105.374L48.8344 105.47C48.6144 106.026 48.2724 106.45 47.8084 106.742C47.3444 107.034 46.7884 107.18 46.1404 107.18ZM46.2424 106.418C46.6544 106.418 47.0144 106.344 47.3224 106.196C47.6304 106.048 47.8784 105.846 48.0664 105.59C48.2544 105.33 48.3764 105.038 48.4324 104.714C48.4804 104.506 48.5064 104.278 48.5104 104.03C48.5144 103.778 48.5164 103.59 48.5164 103.466L48.8524 103.64C48.5524 103.68 48.2264 103.72 47.8744 103.76C47.5264 103.8 47.1824 103.846 46.8424 103.898C46.5064 103.95 46.2024 104.012 45.9304 104.084C45.7464 104.136 45.5684 104.21 45.3964 104.306C45.2244 104.398 45.0824 104.522 44.9704 104.678C44.8624 104.834 44.8084 105.028 44.8084 105.26C44.8084 105.448 44.8544 105.63 44.9464 105.806C45.0424 105.982 45.1944 106.128 45.4024 106.244C45.6144 106.36 45.8944 106.418 46.2424 106.418ZM55.5144 107V103.694C55.5144 103.334 55.4804 103.004 55.4124 102.704C55.3444 102.4 55.2344 102.136 55.0824 101.912C54.9344 101.684 54.7404 101.508 54.5004 101.384C54.2644 101.26 53.9764 101.198 53.6364 101.198C53.3244 101.198 53.0484 101.252 52.8084 101.36C52.5724 101.468 52.3724 101.624 52.2084 101.828C52.0484 102.028 51.9264 102.272 51.8424 102.56C51.7584 102.848 51.7164 103.176 51.7164 103.544L51.0924 103.406C51.0924 102.742 51.2084 102.184 51.4404 101.732C51.6724 101.28 51.9924 100.938 52.4004 100.706C52.8084 100.474 53.2764 100.358 53.8044 100.358C54.1924 100.358 54.5304 100.418 54.8184 100.538C55.1104 100.658 55.3564 100.82 55.5564 101.024C55.7604 101.228 55.9244 101.462 56.0484 101.726C56.1724 101.986 56.2624 102.264 56.3184 102.56C56.3744 102.852 56.4024 103.144 56.4024 103.436V107H55.5144ZM50.8284 107V100.52H51.6264V102.116H51.7164V107H50.8284Z" fill="#ACB5BB"/>
<path d="M94.84 107V98.36H99.802V99.242H95.722V102.242H99.082V103.118H95.722V107H94.84ZM103.333 107.18C102.701 107.18 102.153 107.04 101.689 106.76C101.229 106.48 100.871 106.086 100.615 105.578C100.359 105.07 100.231 104.474 100.231 103.79C100.231 103.082 100.357 102.47 100.609 101.954C100.861 101.438 101.215 101.04 101.671 100.76C102.131 100.48 102.673 100.34 103.297 100.34C103.937 100.34 104.483 100.488 104.935 100.784C105.387 101.076 105.729 101.496 105.961 102.044C106.193 102.592 106.299 103.246 106.279 104.006H105.379V103.694C105.363 102.854 105.181 102.22 104.833 101.792C104.489 101.364 103.985 101.15 103.321 101.15C102.625 101.15 102.091 101.376 101.719 101.828C101.351 102.28 101.167 102.924 101.167 103.76C101.167 104.576 101.351 105.21 101.719 105.662C102.091 106.11 102.617 106.334 103.297 106.334C103.761 106.334 104.165 106.228 104.509 106.016C104.857 105.8 105.131 105.49 105.331 105.086L106.153 105.404C105.897 105.968 105.519 106.406 105.019 106.718C104.523 107.026 103.961 107.18 103.333 107.18ZM100.855 104.006V103.268H105.805V104.006H100.855ZM110.401 107.18C109.805 107.18 109.301 107.03 108.889 106.73C108.477 106.426 108.165 106.016 107.953 105.5C107.741 104.98 107.635 104.398 107.635 103.754C107.635 103.098 107.741 102.514 107.953 102.002C108.169 101.486 108.485 101.08 108.901 100.784C109.317 100.488 109.829 100.34 110.437 100.34C111.029 100.34 111.537 100.49 111.961 100.79C112.385 101.09 112.709 101.498 112.933 102.014C113.161 102.53 113.275 103.11 113.275 103.754C113.275 104.402 113.161 104.984 112.933 105.5C112.705 106.016 112.377 106.426 111.949 106.73C111.521 107.03 111.005 107.18 110.401 107.18ZM107.485 107V98.36H108.373V102.122H108.277V107H107.485ZM110.311 106.358C110.763 106.358 111.139 106.244 111.439 106.016C111.739 105.788 111.963 105.478 112.111 105.086C112.263 104.69 112.339 104.246 112.339 103.754C112.339 103.266 112.265 102.826 112.117 102.434C111.969 102.042 111.743 101.732 111.439 101.504C111.139 101.276 110.757 101.162 110.293 101.162C109.841 101.162 109.465 101.272 109.165 101.492C108.869 101.712 108.647 102.018 108.499 102.41C108.351 102.798 108.277 103.246 108.277 103.754C108.277 104.254 108.351 104.702 108.499 105.098C108.647 105.49 108.871 105.798 109.171 106.022C109.471 106.246 109.851 106.358 110.311 106.358Z" fill="#ACB5BB"/>
<path d="M150.84 107V98.36H151.65L155.046 105.626L158.424 98.36H159.246V106.994H158.406V100.328L155.328 107H154.758L151.686 100.328V107H150.84ZM162.664 107.18C162.176 107.18 161.766 107.092 161.434 106.916C161.106 106.74 160.86 106.506 160.696 106.214C160.532 105.922 160.45 105.604 160.45 105.26C160.45 104.908 160.52 104.608 160.66 104.36C160.804 104.108 160.998 103.902 161.242 103.742C161.49 103.582 161.776 103.46 162.1 103.376C162.428 103.296 162.79 103.226 163.186 103.166C163.586 103.102 163.976 103.048 164.356 103.004C164.74 102.956 165.076 102.91 165.364 102.866L165.052 103.058C165.064 102.418 164.94 101.944 164.68 101.636C164.42 101.328 163.968 101.174 163.324 101.174C162.88 101.174 162.504 101.274 162.196 101.474C161.892 101.674 161.678 101.99 161.554 102.422L160.696 102.17C160.844 101.59 161.142 101.14 161.59 100.82C162.038 100.5 162.62 100.34 163.336 100.34C163.928 100.34 164.43 100.452 164.842 100.676C165.258 100.896 165.552 101.216 165.724 101.636C165.804 101.824 165.856 102.034 165.88 102.266C165.904 102.498 165.916 102.734 165.916 102.974V107H165.13V105.374L165.358 105.47C165.138 106.026 164.796 106.45 164.332 106.742C163.868 107.034 163.312 107.18 162.664 107.18ZM162.766 106.418C163.178 106.418 163.538 106.344 163.846 106.196C164.154 106.048 164.402 105.846 164.59 105.59C164.778 105.33 164.9 105.038 164.956 104.714C165.004 104.506 165.03 104.278 165.034 104.03C165.038 103.778 165.04 103.59 165.04 103.466L165.376 103.64C165.076 103.68 164.75 103.72 164.398 103.76C164.05 103.8 163.706 103.846 163.366 103.898C163.03 103.95 162.726 104.012 162.454 104.084C162.27 104.136 162.092 104.21 161.92 104.306C161.748 104.398 161.606 104.522 161.494 104.678C161.386 104.834 161.332 105.028 161.332 105.26C161.332 105.448 161.378 105.63 161.47 105.806C161.566 105.982 161.718 106.128 161.926 106.244C162.138 106.36 162.418 106.418 162.766 106.418ZM167.358 107V100.52H168.15V102.08L167.994 101.876C168.066 101.684 168.16 101.508 168.276 101.348C168.392 101.184 168.518 101.05 168.654 100.946C168.822 100.798 169.018 100.686 169.242 100.61C169.466 100.53 169.692 100.484 169.92 100.472C170.148 100.456 170.356 100.472 170.544 100.52V101.348C170.308 101.288 170.05 101.274 169.77 101.306C169.49 101.338 169.232 101.45 168.996 101.642C168.78 101.81 168.618 102.012 168.51 102.248C168.402 102.48 168.33 102.728 168.294 102.992C168.258 103.252 168.24 103.51 168.24 103.766V107H167.358Z" fill="#ACB5BB"/>
</svg>
