<svg width="27" height="18" viewBox="0 0 27 18" fill="none" xmlns="http://www.w3.org/2000/svg">
<g opacity="0.73">
<path d="M9.84888 2.44189H17.1488V15.5587H9.84888V2.44189Z" fill="#FF5F00"/>
<path d="M10.312 9.00008C10.312 6.33504 11.5634 3.97119 13.4868 2.44163C12.0733 1.32927 10.2889 0.657227 8.34223 0.657227C3.73032 0.657227 -0.000732422 4.38828 -0.000732422 9.00008C-0.000732422 13.6118 3.73032 17.3429 8.34213 17.3429C10.2888 17.3429 12.0732 16.6709 13.4868 15.5584C11.5634 14.0521 10.312 11.6651 10.312 9.00008Z" fill="#EB001B"/>
<path d="M26.9999 9.00008C26.9999 13.6118 23.2688 17.3429 18.657 17.3429C16.7104 17.3429 14.926 16.6709 13.5123 15.5584C15.459 14.029 16.6873 11.6651 16.6873 9.00008C16.6873 6.33504 15.4358 3.97119 13.5123 2.44163C14.9259 1.32927 16.7104 0.657227 18.657 0.657227C23.2688 0.657227 27 4.41151 27 9.00008H26.9999Z" fill="#F79E1B"/>
</g>
</svg>
