<svg width="32" height="32" viewBox="0 0 32 32" fill="none" xmlns="http://www.w3.org/2000/svg">
<rect width="32" height="32" rx="7" fill="white"/>
<path d="M23.5584 10.3583C22.2167 10.225 20.875 10.125 19.525 10.05V10.0416L19.3417 8.95829C19.2167 8.19163 19.0334 7.04163 17.0834 7.04163H14.9C12.9584 7.04163 12.775 8.14163 12.6417 8.94996L12.4667 10.0166C11.6917 10.0666 10.9167 10.1166 10.1417 10.1916L8.44172 10.3583C8.09172 10.3916 7.84172 10.7 7.87505 11.0416C7.90838 11.3833 8.20838 11.6333 8.55838 11.6L10.2584 11.4333C14.625 11 19.0251 11.1666 23.4417 11.6083C23.4667 11.6083 23.4834 11.6083 23.5084 11.6083C23.8251 11.6083 24.1 11.3666 24.1334 11.0416C24.1584 10.7 23.9084 10.3916 23.5584 10.3583Z" fill="#ACB5BB"/>
<path d="M22.025 12.7834C21.825 12.575 21.55 12.4584 21.2666 12.4584H10.7333C10.45 12.4584 10.1666 12.575 9.97495 12.7834C9.78329 12.9917 9.67495 13.275 9.69162 13.5667L10.2083 22.1167C10.3 23.3834 10.4166 24.9667 13.325 24.9667H18.675C21.5833 24.9667 21.7 23.3917 21.7916 22.1167L22.3083 13.575C22.325 13.275 22.2166 12.9917 22.025 12.7834ZM17.3833 20.7917H14.6083C14.2666 20.7917 13.9833 20.5084 13.9833 20.1667C13.9833 19.825 14.2666 19.5417 14.6083 19.5417H17.3833C17.725 19.5417 18.0083 19.825 18.0083 20.1667C18.0083 20.5084 17.725 20.7917 17.3833 20.7917ZM18.0833 17.4584H13.9166C13.575 17.4584 13.2916 17.175 13.2916 16.8334C13.2916 16.4917 13.575 16.2084 13.9166 16.2084H18.0833C18.425 16.2084 18.7083 16.4917 18.7083 16.8334C18.7083 17.175 18.425 17.4584 18.0833 17.4584Z" fill="#ACB5BB"/>
</svg>
