<svg width="32" height="32" viewBox="0 0 32 32" fill="none" xmlns="http://www.w3.org/2000/svg">
<rect width="32" height="32" rx="7" fill="white"/>
<path d="M23.7082 13.6249C21.7832 10.5999 18.9665 8.85828 15.9998 8.85828C14.5165 8.85828 13.0748 9.29161 11.7582 10.0999C10.4415 10.9166 9.25817 12.1083 8.2915 13.6249C7.45817 14.9333 7.45817 17.0583 8.2915 18.3666C10.2165 21.3999 13.0332 23.1333 15.9998 23.1333C17.4832 23.1333 18.9248 22.6999 20.2415 21.8916C21.5582 21.0749 22.7415 19.8833 23.7082 18.3666C24.5415 17.0666 24.5415 14.9333 23.7082 13.6249ZM15.9998 19.3666C14.1332 19.3666 12.6332 17.8583 12.6332 15.9999C12.6332 14.1416 14.1332 12.6333 15.9998 12.6333C17.8665 12.6333 19.3665 14.1416 19.3665 15.9999C19.3665 17.8583 17.8665 19.3666 15.9998 19.3666Z" fill="#ACB5BB"/>
<path d="M16 13.6167C14.6917 13.6167 13.625 14.6834 13.625 16C13.625 17.3084 14.6917 18.375 16 18.375C17.3083 18.375 18.3833 17.3084 18.3833 16C18.3833 14.6917 17.3083 13.6167 16 13.6167Z" fill="#ACB5BB"/>
</svg>
