<svg width="191" height="190" viewBox="0 0 191 190" fill="none" xmlns="http://www.w3.org/2000/svg">
<path d="M50.8434 14.5651C50.0392 13.1165 50.5597 11.2856 52.0329 10.5275C68.2433 2.18594 86.5335 -1.3249 104.72 0.448555C122.907 2.22201 140.174 9.20021 154.468 20.5163C155.767 21.5448 155.924 23.4417 154.855 24.7077L140.959 41.1644C139.89 42.4303 138.001 42.5841 136.689 41.5725C126.674 33.852 114.673 29.0886 102.047 27.8574C89.4221 26.6263 76.7264 28.9814 65.4091 34.6218C63.9262 35.3608 62.1026 34.845 61.2983 33.3964L50.8434 14.5651Z" fill="#4D81E7"/>
<path d="M164.221 33.8327C165.458 32.7311 167.359 32.8384 168.421 34.1102C176.047 43.2437 181.89 53.7292 185.646 65.0202C186.168 66.5924 185.26 68.2649 183.672 68.7379L163.029 74.8863C161.441 75.3593 159.777 74.4528 159.234 72.8875C156.656 65.4568 152.798 58.5339 147.835 52.4322C146.79 51.1468 146.894 49.2546 148.132 48.1531L164.221 33.8327Z" fill="#C65468"/>
<path d="M186.562 81.893C188.202 81.6569 189.727 82.795 189.911 84.4416C192.059 103.642 188.302 123.068 179.105 140.113C169.433 158.038 154.255 172.381 135.81 181.024C117.366 189.667 96.6322 192.153 76.6675 188.115C57.6843 184.275 40.3524 174.731 26.972 160.795C25.8245 159.599 25.9263 157.699 27.1571 156.589L43.1574 142.17C44.3883 141.061 46.2806 141.165 47.4434 142.345C56.8596 151.903 68.9314 158.454 82.1267 161.122C96.304 163.99 111.027 162.224 124.125 156.087C137.223 149.949 148.001 139.765 154.87 127.035C161.263 115.187 163.954 101.719 162.634 88.3671C162.471 86.7183 163.602 85.1976 165.242 84.9616L186.562 81.893Z" fill="#31B099"/>
<path d="M20.6558 148.501C19.3079 149.464 17.4299 149.155 16.5094 147.778C10.1437 138.25 5.54931 127.643 2.95666 116.465C0.137883 104.312 -0.259584 91.7225 1.78695 79.4159C3.83348 67.1093 8.28393 55.3264 14.8842 44.7397C20.955 35.0024 28.7352 26.4525 37.8418 19.4981C39.1586 18.4925 41.0356 18.8079 41.9991 20.1558L54.5246 37.6782C55.4881 39.0261 55.1719 40.8946 53.8682 41.9171C47.697 46.757 42.4107 52.6411 38.2533 59.3093C33.5664 66.8271 30.406 75.1944 28.9528 83.9335C27.4995 92.6726 27.7817 101.612 29.7834 110.242C31.5589 117.897 34.6563 125.175 38.929 131.752C39.8316 133.142 39.5261 135.012 38.1782 135.975L20.6558 148.501Z" fill="#E7854D"/>
<g filter="url(#filter0_d_1_4308)">
<circle cx="96" cy="95.5" r="57.5" fill="white"/>
</g>
<path d="M69.68 92V77.876L66.44 79.856V76.664L69.68 74.72H72.632V92H69.68ZM82.6994 92.36C81.4754 92.36 80.3954 92.1 79.4594 91.58C78.5234 91.052 77.7914 90.32 77.2634 89.384C76.7434 88.448 76.4834 87.368 76.4834 86.144V80.576C76.4834 79.352 76.7434 78.272 77.2634 77.336C77.7914 76.4 78.5234 75.672 79.4594 75.152C80.3954 74.624 81.4754 74.36 82.6994 74.36C83.9234 74.36 84.9994 74.624 85.9274 75.152C86.8634 75.672 87.5954 76.4 88.1234 77.336C88.6514 78.272 88.9154 79.352 88.9154 80.576V86.144C88.9154 87.368 88.6514 88.448 88.1234 89.384C87.5954 90.32 86.8634 91.052 85.9274 91.58C84.9994 92.1 83.9234 92.36 82.6994 92.36ZM82.6994 89.612C83.3074 89.612 83.8594 89.468 84.3554 89.18C84.8514 88.884 85.2434 88.492 85.5314 88.004C85.8194 87.508 85.9634 86.956 85.9634 86.348V80.36C85.9634 79.744 85.8194 79.192 85.5314 78.704C85.2434 78.208 84.8514 77.816 84.3554 77.528C83.8594 77.232 83.3074 77.084 82.6994 77.084C82.0914 77.084 81.5394 77.232 81.0434 77.528C80.5474 77.816 80.1554 78.208 79.8674 78.704C79.5794 79.192 79.4354 79.744 79.4354 80.36V86.348C79.4354 86.956 79.5794 87.508 79.8674 88.004C80.1554 88.492 80.5474 88.884 81.0434 89.18C81.5394 89.468 82.0914 89.612 82.6994 89.612ZM97.7763 92.36C96.5523 92.36 95.4723 92.1 94.5363 91.58C93.6003 91.052 92.8683 90.32 92.3403 89.384C91.8203 88.448 91.5603 87.368 91.5603 86.144V80.576C91.5603 79.352 91.8203 78.272 92.3403 77.336C92.8683 76.4 93.6003 75.672 94.5363 75.152C95.4723 74.624 96.5523 74.36 97.7763 74.36C99.0003 74.36 100.076 74.624 101.004 75.152C101.94 75.672 102.672 76.4 103.2 77.336C103.728 78.272 103.992 79.352 103.992 80.576V86.144C103.992 87.368 103.728 88.448 103.2 89.384C102.672 90.32 101.94 91.052 101.004 91.58C100.076 92.1 99.0003 92.36 97.7763 92.36ZM97.7763 89.612C98.3843 89.612 98.9363 89.468 99.4323 89.18C99.9283 88.884 100.32 88.492 100.608 88.004C100.896 87.508 101.04 86.956 101.04 86.348V80.36C101.04 79.744 100.896 79.192 100.608 78.704C100.32 78.208 99.9283 77.816 99.4323 77.528C98.9363 77.232 98.3843 77.084 97.7763 77.084C97.1683 77.084 96.6163 77.232 96.1203 77.528C95.6243 77.816 95.2323 78.208 94.9443 78.704C94.6563 79.192 94.5123 79.744 94.5123 80.36V86.348C94.5123 86.956 94.6563 87.508 94.9443 88.004C95.2323 88.492 95.6243 88.884 96.1203 89.18C96.6163 89.468 97.1683 89.612 97.7763 89.612ZM109.037 92L107.117 90.08L122.489 74.72L124.409 76.652L109.037 92ZM120.809 92.36C120.017 92.36 119.293 92.168 118.637 91.784C117.989 91.392 117.469 90.872 117.077 90.224C116.685 89.568 116.489 88.84 116.489 88.04C116.489 87.256 116.689 86.536 117.089 85.88C117.489 85.224 118.017 84.7 118.673 84.308C119.329 83.916 120.041 83.72 120.809 83.72C121.601 83.72 122.325 83.916 122.981 84.308C123.637 84.692 124.157 85.212 124.541 85.868C124.933 86.516 125.129 87.24 125.129 88.04C125.129 88.84 124.933 89.568 124.541 90.224C124.157 90.872 123.637 91.392 122.981 91.784C122.325 92.168 121.601 92.36 120.809 92.36ZM120.809 89.888C121.137 89.888 121.441 89.804 121.721 89.636C122.009 89.468 122.237 89.244 122.405 88.964C122.573 88.684 122.657 88.376 122.657 88.04C122.657 87.704 122.573 87.396 122.405 87.116C122.237 86.836 122.009 86.612 121.721 86.444C121.441 86.276 121.137 86.192 120.809 86.192C120.473 86.192 120.165 86.276 119.885 86.444C119.605 86.612 119.377 86.836 119.201 87.116C119.033 87.396 118.949 87.704 118.949 88.04C118.949 88.376 119.033 88.684 119.201 88.964C119.377 89.244 119.605 89.468 119.885 89.636C120.165 89.804 120.473 89.888 120.809 89.888ZM110.717 83C109.925 83 109.201 82.808 108.545 82.424C107.889 82.032 107.365 81.512 106.973 80.864C106.589 80.208 106.397 79.48 106.397 78.68C106.397 77.896 106.597 77.176 106.997 76.52C107.397 75.864 107.925 75.34 108.581 74.948C109.237 74.556 109.949 74.36 110.717 74.36C111.509 74.36 112.229 74.556 112.877 74.948C113.533 75.332 114.057 75.852 114.449 76.508C114.841 77.156 115.037 77.88 115.037 78.68C115.037 79.48 114.841 80.208 114.449 80.864C114.057 81.512 113.533 82.032 112.877 82.424C112.229 82.808 111.509 83 110.717 83ZM110.717 80.528C111.053 80.528 111.361 80.444 111.641 80.276C111.921 80.108 112.145 79.884 112.313 79.604C112.481 79.324 112.565 79.016 112.565 78.68C112.565 78.344 112.481 78.036 112.313 77.756C112.145 77.476 111.921 77.252 111.641 77.084C111.361 76.916 111.053 76.832 110.717 76.832C110.381 76.832 110.073 76.916 109.793 77.084C109.513 77.252 109.289 77.476 109.121 77.756C108.953 78.036 108.869 78.344 108.869 78.68C108.869 79.016 108.953 79.324 109.121 79.604C109.289 79.884 109.513 80.108 109.793 80.276C110.073 80.444 110.381 80.528 110.717 80.528Z" fill="#1A1C1E"/>
<path d="M56.34 114V105.36H59.004C59.092 105.36 59.246 105.362 59.466 105.366C59.686 105.37 59.896 105.386 60.096 105.414C60.764 105.502 61.322 105.746 61.77 106.146C62.222 106.542 62.562 107.046 62.79 107.658C63.018 108.27 63.132 108.944 63.132 109.68C63.132 110.416 63.018 111.09 62.79 111.702C62.562 112.314 62.222 112.82 61.77 113.22C61.322 113.616 60.764 113.858 60.096 113.946C59.896 113.97 59.684 113.986 59.46 113.994C59.24 113.998 59.088 114 59.004 114H56.34ZM57.438 112.98H59.004C59.156 112.98 59.326 112.976 59.514 112.968C59.702 112.956 59.866 112.938 60.006 112.914C60.478 112.826 60.86 112.628 61.152 112.32C61.444 112.012 61.658 111.628 61.794 111.168C61.93 110.708 61.998 110.212 61.998 109.68C61.998 109.136 61.928 108.634 61.788 108.174C61.652 107.714 61.438 107.332 61.146 107.028C60.854 106.724 60.474 106.53 60.006 106.446C59.866 106.418 59.7 106.4 59.508 106.392C59.316 106.384 59.148 106.38 59.004 106.38H57.438V112.98ZM66.11 114.18C65.626 114.18 65.22 114.092 64.892 113.916C64.568 113.736 64.322 113.5 64.154 113.208C63.99 112.916 63.908 112.596 63.908 112.248C63.908 111.908 63.972 111.614 64.1 111.366C64.232 111.114 64.416 110.906 64.652 110.742C64.888 110.574 65.17 110.442 65.498 110.346C65.806 110.262 66.15 110.19 66.53 110.13C66.914 110.066 67.302 110.008 67.694 109.956C68.086 109.904 68.452 109.854 68.792 109.806L68.408 110.028C68.42 109.452 68.304 109.026 68.06 108.75C67.82 108.474 67.404 108.336 66.812 108.336C66.42 108.336 66.076 108.426 65.78 108.606C65.488 108.782 65.282 109.07 65.162 109.47L64.148 109.164C64.304 108.596 64.606 108.15 65.054 107.826C65.502 107.502 66.092 107.34 66.824 107.34C67.412 107.34 67.916 107.446 68.336 107.658C68.76 107.866 69.064 108.182 69.248 108.606C69.34 108.806 69.398 109.024 69.422 109.26C69.446 109.492 69.458 109.736 69.458 109.992V114H68.51V112.446L68.732 112.59C68.488 113.114 68.146 113.51 67.706 113.778C67.27 114.046 66.738 114.18 66.11 114.18ZM66.272 113.286C66.656 113.286 66.988 113.218 67.268 113.082C67.552 112.942 67.78 112.76 67.952 112.536C68.124 112.308 68.236 112.06 68.288 111.792C68.348 111.592 68.38 111.37 68.384 111.126C68.392 110.878 68.396 110.688 68.396 110.556L68.768 110.718C68.42 110.766 68.078 110.812 67.742 110.856C67.406 110.9 67.088 110.948 66.788 111C66.488 111.048 66.218 111.106 65.978 111.174C65.802 111.23 65.636 111.302 65.48 111.39C65.328 111.478 65.204 111.592 65.108 111.732C65.016 111.868 64.97 112.038 64.97 112.242C64.97 112.418 65.014 112.586 65.102 112.746C65.194 112.906 65.334 113.036 65.522 113.136C65.714 113.236 65.964 113.286 66.272 113.286ZM74.396 114C74.012 114.076 73.632 114.106 73.256 114.09C72.884 114.078 72.552 114.004 72.26 113.868C71.968 113.728 71.746 113.512 71.594 113.22C71.466 112.964 71.396 112.706 71.384 112.446C71.376 112.182 71.372 111.884 71.372 111.552V105.72H72.44V111.504C72.44 111.768 72.442 111.994 72.446 112.182C72.454 112.37 72.496 112.532 72.572 112.668C72.716 112.924 72.944 113.074 73.256 113.118C73.572 113.162 73.952 113.15 74.396 113.082V114ZM70.058 108.402V107.52H74.396V108.402H70.058ZM77.3136 114.18C76.8296 114.18 76.4236 114.092 76.0956 113.916C75.7716 113.736 75.5256 113.5 75.3576 113.208C75.1936 112.916 75.1116 112.596 75.1116 112.248C75.1116 111.908 75.1756 111.614 75.3036 111.366C75.4356 111.114 75.6196 110.906 75.8556 110.742C76.0916 110.574 76.3736 110.442 76.7016 110.346C77.0096 110.262 77.3536 110.19 77.7336 110.13C78.1176 110.066 78.5056 110.008 78.8976 109.956C79.2896 109.904 79.6556 109.854 79.9956 109.806L79.6116 110.028C79.6236 109.452 79.5076 109.026 79.2636 108.75C79.0236 108.474 78.6076 108.336 78.0156 108.336C77.6236 108.336 77.2796 108.426 76.9836 108.606C76.6916 108.782 76.4856 109.07 76.3656 109.47L75.3516 109.164C75.5076 108.596 75.8096 108.15 76.2576 107.826C76.7056 107.502 77.2956 107.34 78.0276 107.34C78.6156 107.34 79.1196 107.446 79.5396 107.658C79.9636 107.866 80.2676 108.182 80.4516 108.606C80.5436 108.806 80.6016 109.024 80.6256 109.26C80.6496 109.492 80.6616 109.736 80.6616 109.992V114H79.7136V112.446L79.9356 112.59C79.6916 113.114 79.3496 113.51 78.9096 113.778C78.4736 114.046 77.9416 114.18 77.3136 114.18ZM77.4756 113.286C77.8596 113.286 78.1916 113.218 78.4716 113.082C78.7556 112.942 78.9836 112.76 79.1556 112.536C79.3276 112.308 79.4396 112.06 79.4916 111.792C79.5516 111.592 79.5836 111.37 79.5876 111.126C79.5956 110.878 79.5996 110.688 79.5996 110.556L79.9716 110.718C79.6236 110.766 79.2816 110.812 78.9456 110.856C78.6096 110.9 78.2916 110.948 77.9916 111C77.6916 111.048 77.4216 111.106 77.1816 111.174C77.0056 111.23 76.8396 111.302 76.6836 111.39C76.5316 111.478 76.4076 111.592 76.3116 111.732C76.2196 111.868 76.1736 112.038 76.1736 112.242C76.1736 112.418 76.2176 112.586 76.3056 112.746C76.3976 112.906 76.5376 113.036 76.7256 113.136C76.9176 113.236 77.1676 113.286 77.4756 113.286ZM84.1439 114V105.36H87.5579C87.6419 105.36 87.7419 105.364 87.8579 105.372C87.9739 105.376 88.0859 105.388 88.1939 105.408C88.6619 105.48 89.0539 105.64 89.3699 105.888C89.6899 106.136 89.9299 106.45 90.0899 106.83C90.2499 107.206 90.3299 107.624 90.3299 108.084C90.3299 108.752 90.1559 109.332 89.8079 109.824C89.4599 110.312 88.9499 110.618 88.2779 110.742L87.8699 110.808H85.2119V114H84.1439ZM89.2859 114L87.5819 110.484L88.6379 110.16L90.5099 114H89.2859ZM85.2119 109.794H87.5219C87.5979 109.794 87.6839 109.79 87.7799 109.782C87.8799 109.774 87.9739 109.76 88.0619 109.74C88.3379 109.676 88.5619 109.56 88.7339 109.392C88.9099 109.22 89.0379 109.02 89.1179 108.792C89.1979 108.56 89.2379 108.324 89.2379 108.084C89.2379 107.844 89.1979 107.61 89.1179 107.382C89.0379 107.15 88.9099 106.948 88.7339 106.776C88.5619 106.604 88.3379 106.488 88.0619 106.428C87.9739 106.404 87.8799 106.39 87.7799 106.386C87.6839 106.378 87.5979 106.374 87.5219 106.374H85.2119V109.794ZM94.3994 114.18C93.7634 114.18 93.2074 114.04 92.7314 113.76C92.2594 113.476 91.8914 113.082 91.6274 112.578C91.3634 112.07 91.2314 111.478 91.2314 110.802C91.2314 110.094 91.3614 109.482 91.6214 108.966C91.8814 108.446 92.2434 108.046 92.7074 107.766C93.1754 107.482 93.7234 107.34 94.3514 107.34C95.0034 107.34 95.5574 107.49 96.0134 107.79C96.4734 108.09 96.8174 108.518 97.0454 109.074C97.2774 109.63 97.3774 110.292 97.3454 111.06H96.2654V110.676C96.2534 109.88 96.0914 109.286 95.7794 108.894C95.4674 108.498 95.0034 108.3 94.3874 108.3C93.7274 108.3 93.2254 108.512 92.8814 108.936C92.5374 109.36 92.3654 109.968 92.3654 110.76C92.3654 111.524 92.5374 112.116 92.8814 112.536C93.2254 112.956 93.7154 113.166 94.3514 113.166C94.7794 113.166 95.1514 113.068 95.4674 112.872C95.7834 112.676 96.0314 112.394 96.2114 112.026L97.2374 112.38C96.9854 112.952 96.6054 113.396 96.0974 113.712C95.5934 114.024 95.0274 114.18 94.3994 114.18ZM92.0054 111.06V110.202H96.7934V111.06H92.0054ZM101.171 114.18C100.515 114.18 99.9572 114.034 99.4972 113.742C99.0412 113.446 98.6932 113.04 98.4532 112.524C98.2132 112.008 98.0892 111.42 98.0812 110.76C98.0892 110.084 98.2152 109.49 98.4592 108.978C98.7072 108.462 99.0612 108.06 99.5212 107.772C99.9812 107.484 100.535 107.34 101.183 107.34C101.867 107.34 102.455 107.508 102.947 107.844C103.443 108.18 103.775 108.64 103.943 109.224L102.887 109.542C102.751 109.166 102.529 108.874 102.221 108.666C101.917 108.458 101.567 108.354 101.171 108.354C100.727 108.354 100.361 108.458 100.073 108.666C99.7852 108.87 99.5712 109.154 99.4312 109.518C99.2912 109.878 99.2192 110.292 99.2152 110.76C99.2232 111.48 99.3892 112.062 99.7132 112.506C100.041 112.946 100.527 113.166 101.171 113.166C101.595 113.166 101.947 113.07 102.227 112.878C102.507 112.682 102.719 112.4 102.863 112.032L103.943 112.314C103.719 112.918 103.369 113.38 102.893 113.7C102.417 114.02 101.843 114.18 101.171 114.18ZM107.512 114.18C106.868 114.18 106.312 114.034 105.844 113.742C105.38 113.45 105.022 113.046 104.77 112.53C104.518 112.014 104.392 111.422 104.392 110.754C104.392 110.074 104.52 109.478 104.776 108.966C105.032 108.454 105.394 108.056 105.862 107.772C106.33 107.484 106.88 107.34 107.512 107.34C108.16 107.34 108.718 107.486 109.186 107.778C109.654 108.066 110.012 108.468 110.26 108.984C110.512 109.496 110.638 110.086 110.638 110.754C110.638 111.43 110.512 112.026 110.26 112.542C110.008 113.054 109.648 113.456 109.18 113.748C108.712 114.036 108.156 114.18 107.512 114.18ZM107.512 113.166C108.184 113.166 108.684 112.942 109.012 112.494C109.34 112.046 109.504 111.466 109.504 110.754C109.504 110.022 109.338 109.44 109.006 109.008C108.674 108.572 108.176 108.354 107.512 108.354C107.06 108.354 106.688 108.456 106.396 108.66C106.104 108.864 105.886 109.146 105.742 109.506C105.598 109.866 105.526 110.282 105.526 110.754C105.526 111.482 105.694 112.066 106.03 112.506C106.366 112.946 106.86 113.166 107.512 113.166ZM111.719 114V107.52H112.673V109.086L112.517 108.882C112.593 108.682 112.691 108.498 112.811 108.33C112.935 108.162 113.073 108.024 113.225 107.916C113.393 107.78 113.583 107.676 113.795 107.604C114.007 107.532 114.223 107.49 114.443 107.478C114.663 107.462 114.869 107.476 115.061 107.52V108.522C114.837 108.462 114.591 108.446 114.323 108.474C114.055 108.502 113.807 108.6 113.579 108.768C113.371 108.916 113.209 109.096 113.093 109.308C112.981 109.52 112.903 109.75 112.859 109.998C112.815 110.242 112.793 110.492 112.793 110.748V114H111.719ZM118.382 114.18C117.778 114.18 117.26 114.03 116.828 113.73C116.396 113.426 116.062 113.016 115.826 112.5C115.594 111.984 115.478 111.402 115.478 110.754C115.478 110.106 115.594 109.524 115.826 109.008C116.062 108.492 116.396 108.086 116.828 107.79C117.26 107.49 117.776 107.34 118.376 107.34C118.988 107.34 119.502 107.488 119.918 107.784C120.334 108.08 120.648 108.486 120.86 109.002C121.076 109.518 121.184 110.102 121.184 110.754C121.184 111.398 121.076 111.98 120.86 112.5C120.648 113.016 120.334 113.426 119.918 113.73C119.502 114.03 118.99 114.18 118.382 114.18ZM118.514 113.202C118.95 113.202 119.308 113.098 119.588 112.89C119.868 112.678 120.074 112.388 120.206 112.02C120.342 111.648 120.41 111.226 120.41 110.754C120.41 110.274 120.342 109.852 120.206 109.488C120.074 109.12 119.87 108.834 119.594 108.63C119.318 108.422 118.968 108.318 118.544 108.318C118.104 108.318 117.74 108.426 117.452 108.642C117.168 108.858 116.956 109.15 116.816 109.518C116.68 109.886 116.612 110.298 116.612 110.754C116.612 111.214 116.682 111.63 116.822 112.002C116.962 112.37 117.172 112.662 117.452 112.878C117.736 113.094 118.09 113.202 118.514 113.202ZM120.41 114V109.23H120.29V105.36H121.364V114H120.41ZM125.613 114.18C124.977 114.18 124.421 114.04 123.945 113.76C123.473 113.476 123.105 113.082 122.841 112.578C122.577 112.07 122.445 111.478 122.445 110.802C122.445 110.094 122.575 109.482 122.835 108.966C123.095 108.446 123.457 108.046 123.921 107.766C124.389 107.482 124.937 107.34 125.565 107.34C126.217 107.34 126.771 107.49 127.227 107.79C127.687 108.09 128.031 108.518 128.259 109.074C128.491 109.63 128.591 110.292 128.559 111.06H127.479V110.676C127.467 109.88 127.305 109.286 126.993 108.894C126.681 108.498 126.217 108.3 125.601 108.3C124.941 108.3 124.439 108.512 124.095 108.936C123.751 109.36 123.579 109.968 123.579 110.76C123.579 111.524 123.751 112.116 124.095 112.536C124.439 112.956 124.929 113.166 125.565 113.166C125.993 113.166 126.365 113.068 126.681 112.872C126.997 112.676 127.245 112.394 127.425 112.026L128.451 112.38C128.199 112.952 127.819 113.396 127.311 113.712C126.807 114.024 126.241 114.18 125.613 114.18ZM123.219 111.06V110.202H128.007V111.06H123.219ZM132.199 114.18C131.595 114.18 131.077 114.03 130.645 113.73C130.213 113.426 129.879 113.016 129.643 112.5C129.411 111.984 129.295 111.402 129.295 110.754C129.295 110.106 129.411 109.524 129.643 109.008C129.879 108.492 130.213 108.086 130.645 107.79C131.077 107.49 131.593 107.34 132.193 107.34C132.805 107.34 133.319 107.488 133.735 107.784C134.151 108.08 134.465 108.486 134.677 109.002C134.893 109.518 135.001 110.102 135.001 110.754C135.001 111.398 134.893 111.98 134.677 112.5C134.465 113.016 134.151 113.426 133.735 113.73C133.319 114.03 132.807 114.18 132.199 114.18ZM132.331 113.202C132.767 113.202 133.125 113.098 133.405 112.89C133.685 112.678 133.891 112.388 134.023 112.02C134.159 111.648 134.227 111.226 134.227 110.754C134.227 110.274 134.159 109.852 134.023 109.488C133.891 109.12 133.687 108.834 133.411 108.63C133.135 108.422 132.785 108.318 132.361 108.318C131.921 108.318 131.557 108.426 131.269 108.642C130.985 108.858 130.773 109.15 130.633 109.518C130.497 109.886 130.429 110.298 130.429 110.754C130.429 111.214 130.499 111.63 130.639 112.002C130.779 112.37 130.989 112.662 131.269 112.878C131.553 113.094 131.907 113.202 132.331 113.202ZM134.227 114V109.23H134.107V105.36H135.181V114H134.227Z" fill="#6C7278"/>
<defs>
<filter id="filter0_d_1_4308" x="14.5" y="14" width="163" height="163" filterUnits="userSpaceOnUse" color-interpolation-filters="sRGB">
<feFlood flood-opacity="0" result="BackgroundImageFix"/>
<feColorMatrix in="SourceAlpha" type="matrix" values="0 0 0 0 0 0 0 0 0 0 0 0 0 0 0 0 0 0 127 0" result="hardAlpha"/>
<feOffset/>
<feGaussianBlur stdDeviation="12"/>
<feComposite in2="hardAlpha" operator="out"/>
<feColorMatrix type="matrix" values="0 0 0 0 0 0 0 0 0 0 0 0 0 0 0 0 0 0 0.09 0"/>
<feBlend mode="normal" in2="BackgroundImageFix" result="effect1_dropShadow_1_4308"/>
<feBlend mode="normal" in="SourceGraphic" in2="effect1_dropShadow_1_4308" result="shape"/>
</filter>
</defs>
</svg>
