<svg width="92" height="27" viewBox="0 0 92 27" fill="none" xmlns="http://www.w3.org/2000/svg">
<path d="M14.2949 0C17.4948 9.56662e-05 20.4339 1.11537 22.7461 2.97754H14.2012C12.7884 2.97764 12.0176 3.74362 12.0176 5.14844V23.5723C12.0176 24.9772 12.7889 25.7441 14.1377 25.7441C15.454 25.744 16.1279 24.9771 16.1279 23.5723V15.8457H24.7344C25.7941 15.8457 26.4043 15.2383 26.4043 14.1846C26.4041 13.163 25.794 12.5889 24.7344 12.5889H16.1279V6.23438H25.4092C25.4955 6.23437 25.5784 6.22821 25.6582 6.2207C27.0012 8.31727 27.7793 10.8107 27.7793 13.4854C27.7791 20.9326 21.7421 26.9695 14.2949 26.9697C6.84753 26.9697 0.809793 20.9327 0.80957 13.4854C0.80957 6.03783 6.8474 0 14.2949 0Z" fill="url(#paint0_linear_1_15108)"/>
<path d="M37.576 21.049C38.4291 21.049 38.8661 20.5496 38.8661 19.634V14.5985H44.4426C45.1293 14.5985 45.5247 14.2031 45.5247 13.5165C45.5247 12.8506 45.1293 12.4761 44.4426 12.4761H38.8661V8.33524H44.8796C45.5871 8.33524 45.9616 7.93989 45.9616 7.25322C45.9616 6.58736 45.5871 6.21281 44.8796 6.21281H37.6176C36.702 6.21281 36.2026 6.71221 36.2026 7.62776V19.634C36.2026 20.5496 36.702 21.049 37.576 21.049Z" fill="white"/>
<path d="M49.1362 8.62655C50.135 8.62655 50.676 8.12716 50.676 7.25322C50.676 6.35847 50.135 5.87988 49.1362 5.87988C48.1582 5.87988 47.5964 6.35847 47.5964 7.25322C47.5964 8.12716 48.1582 8.62655 49.1362 8.62655ZM49.1362 21.0282C49.9893 21.0282 50.4471 20.508 50.4471 19.6132V11.9767C50.4471 11.0611 49.9685 10.5617 49.1362 10.5617C48.3039 10.5617 47.8461 11.0611 47.8461 11.9767V19.6132C47.8461 20.508 48.3039 21.0282 49.1362 21.0282Z" fill="white"/>
<path d="M53.8156 21.049C54.6687 21.049 55.1265 20.5704 55.1265 19.7173V15.1603C55.1265 13.5789 56.1045 12.5385 57.6234 12.5385C58.8719 12.5385 59.4546 13.2251 59.4546 14.8066V19.7173C59.4546 20.5704 59.9331 21.049 60.7655 21.049C61.5978 21.049 62.0556 20.5704 62.0556 19.7173V14.6817C62.0556 11.8518 60.8903 10.4993 58.4558 10.4993C56.9992 10.4993 55.7507 11.1235 55.0641 12.2888V11.8518C55.0641 10.9987 54.6063 10.5409 53.7948 10.5409C52.9832 10.5409 52.5255 10.9987 52.5255 11.8518V19.7173C52.5255 20.5704 52.9832 21.049 53.8156 21.049Z" fill="white"/>
<path d="M67.5481 21.0906C67.8394 21.0906 68.1515 21.0698 68.4429 21.0282C69.0879 20.945 69.3376 20.5704 69.3376 19.8629C69.3376 19.0722 69.2336 18.8641 68.8382 18.9058C68.6509 18.9266 68.4637 18.9474 68.2348 18.9474C67.236 18.9474 66.6742 18.3439 66.6742 17.0746V7.35726C66.6742 6.50413 66.1956 6.04635 65.3633 6.04635C64.5309 6.04635 64.0732 6.50413 64.0732 7.35726V17.1995C64.0732 19.7589 65.2384 21.0906 67.5481 21.0906Z" fill="white"/>
<path d="M73.4438 21.0906C74.8796 21.0906 75.9408 20.4039 76.3985 19.2595V19.7173C76.3985 20.5704 76.8355 21.049 77.6262 21.049C78.3961 21.049 78.8331 20.5704 78.8331 19.7173V14.7233C78.8331 11.831 77.4181 10.4993 74.4426 10.4993C73.4646 10.4993 72.2577 10.7074 70.9884 11.2276C69.6983 11.7478 70.2601 13.7245 71.5919 13.1003C72.6115 12.6217 73.5478 12.4552 74.3593 12.4552C75.7951 12.4552 76.3569 13.0171 76.3569 14.4112V14.8482H75.6286C71.2173 14.8482 69.6359 15.6389 69.6359 17.8654C69.6359 19.6965 71.2381 21.0906 73.4438 21.0906ZM73.9848 19.3011C72.8404 19.3011 72.1745 18.6561 72.1745 17.7405C72.1745 16.6793 73.0484 16.3464 75.6494 16.3464H76.3569V16.8041C76.3569 18.2607 75.3373 19.3011 73.9848 19.3011Z" fill="white"/>
<path d="M86.7168 21.0906C89.3802 21.0906 91.1905 19.0514 91.1905 15.7845C91.1905 12.5177 89.401 10.4993 86.7168 10.4993C85.281 10.4993 84.0533 11.1651 83.4499 12.2055V7.35726C83.4499 6.50413 82.9713 6.04635 82.139 6.04635C81.3067 6.04635 80.8489 6.50413 80.8489 7.35726V19.7173C80.8489 20.5704 81.3067 21.049 82.139 21.049C82.9505 21.049 83.4083 20.5704 83.4083 19.7173V19.2803C83.9909 20.4039 85.2394 21.0906 86.7168 21.0906ZM85.9885 19.1138C84.4279 19.1138 83.4083 17.9902 83.4083 15.7845C83.4083 13.5789 84.4279 12.4761 85.9885 12.4761C87.5283 12.4761 88.5687 13.5789 88.5687 15.7845C88.5687 17.9902 87.5283 19.1138 85.9885 19.1138Z" fill="white"/>
<defs>
<linearGradient id="paint0_linear_1_15108" x1="11.0576" y1="4.009" x2="17.7259" y2="28.5764" gradientUnits="userSpaceOnUse">
<stop stop-color="#2AAC95"/>
<stop offset="0.989583" stop-color="#76D1F7"/>
</linearGradient>
</defs>
</svg>
