<svg width="172" height="135" viewBox="0 0 172 135" fill="none" xmlns="http://www.w3.org/2000/svg">
<path d="M48.2493 60.5337L1.22583 99.4001C0.766145 99.78 0.5 100.345 0.5 100.942V150.5C0.5 151.605 1.39542 152.5 2.49999 152.5H561.5C562.605 152.5 563.5 151.605 563.5 150.5V116.222C563.5 115.756 563.337 115.303 563.038 114.944L512.396 53.9764C512.138 53.6661 511.792 53.441 511.404 53.3306L461.855 39.2431C461.311 39.0883 460.726 39.1714 460.247 39.4717L408.502 71.8728C407.884 72.2597 407.104 72.2797 406.467 71.9252L359.704 45.8921C359.252 45.6405 358.721 45.5738 358.221 45.7059L307.218 59.1781C306.474 59.3748 305.683 59.1265 305.184 58.5398L256.612 1.39608C255.784 0.422346 254.268 0.464049 253.495 1.48182L205.202 65.0754C204.768 65.6471 204.061 65.9423 203.349 65.8489L155.869 59.6141C155.315 59.5414 154.756 59.7038 154.327 60.0619L104.752 101.455C104.023 102.063 102.967 102.076 102.224 101.484L50.7693 60.5108C50.0295 59.9217 48.9782 59.9313 48.2493 60.5337Z" fill="url(#paint0_linear_1_3770)"/>
<defs>
<linearGradient id="paint0_linear_1_3770" x1="282" y1="-0.499998" x2="289" y2="141.5" gradientUnits="userSpaceOnUse">
<stop stop-color="#B2E0FF"/>
<stop offset="1" stop-color="#B2E0FF" stop-opacity="0"/>
</linearGradient>
</defs>
</svg>
